<svg width="143" height="144" viewBox="0 0 143 144" fill="none" xmlns="http://www.w3.org/2000/svg">
<rect x="0.0253906" y="0.268555" width="142.808" height="142.808" rx="53.5528" fill="#F5F5F5"/>
<path d="M71.3177 41.9219H71.537C75.6029 41.9219 78.8062 41.9219 81.3971 42.0986C84.038 42.2788 86.2594 42.6526 88.3226 43.5072C93.4256 45.6209 97.4799 49.6752 99.5936 54.7782C100.448 56.8414 100.822 59.0628 101.002 61.7037C101.179 64.2946 101.179 67.4979 101.179 71.5638V71.7831C101.179 75.849 101.179 79.0523 101.002 81.6432C100.822 84.2841 100.448 86.5055 99.5936 88.5687C98.9247 90.1838 98.0613 91.6937 97.0319 93.0704L50.0304 46.0689C51.407 45.0395 52.917 44.1761 54.5321 43.5072C56.5953 42.6526 58.8167 42.2788 61.4576 42.0986C64.0485 41.9219 67.2518 41.9219 71.3177 41.9219Z" fill="#647067"/>
<path d="M45.8229 50.2765C44.7934 51.6531 43.93 53.1631 43.2611 54.7782C42.4065 56.8414 42.0327 59.0628 41.8525 61.7037C41.6758 64.2946 41.6758 67.4979 41.6758 71.5638V71.7831C41.6758 75.849 41.6758 79.0523 41.8525 81.6432C42.0327 84.2841 42.4065 86.5055 43.2611 88.5687C45.3748 93.6717 49.4291 97.726 54.5321 99.8397C56.5953 100.694 58.8167 101.068 61.4576 101.248C64.0485 101.425 67.2518 101.425 71.3177 101.425H71.537C75.6029 101.425 78.8062 101.425 81.3971 101.248C84.038 101.068 86.2594 100.694 88.3226 99.8397C89.9377 99.1707 91.4477 98.3074 92.8243 97.2779L45.8229 50.2765Z" fill="#647067"/>
</svg>
