<svg width="143" height="144" viewBox="0 0 143 144" fill="none" xmlns="http://www.w3.org/2000/svg">
<rect x="0.0253906" y="0.243164" width="142.808" height="142.808" rx="53.5528" fill="#EFF6FF"/>
<path fill-rule="evenodd" clip-rule="evenodd" d="M71.3177 41.8965H71.537C75.6029 41.8965 78.8062 41.8965 81.3971 42.0732C84.038 42.2534 86.2594 42.6272 88.3226 43.4818C93.4256 45.5955 97.4799 49.6498 99.5936 54.7528C100.448 56.816 100.822 59.0374 101.002 61.6783C101.179 64.2692 101.179 67.4725 101.179 71.5384V71.7577C101.179 75.8236 101.179 79.0269 101.002 81.6178C100.822 84.2587 100.448 86.4801 99.5936 88.5433C97.4799 93.6463 93.4256 97.7006 88.3226 99.8143C86.2594 100.669 84.038 101.043 81.3971 101.223C78.8062 101.4 75.6029 101.4 71.537 101.4H71.3177C67.2518 101.4 64.0485 101.4 61.4576 101.223C58.8167 101.043 56.5953 100.669 54.5321 99.8143C49.4291 97.7006 45.3748 93.6463 43.2611 88.5433C42.4065 86.4801 42.0327 84.2587 41.8525 81.6178C41.6758 79.0269 41.6758 75.8236 41.6758 71.7577V71.5384C41.6758 67.4725 41.6758 64.2692 41.8525 61.6783C42.0327 59.0374 42.4065 56.816 43.2611 54.7528C45.3748 49.6498 49.4291 45.5955 54.5321 43.4818C56.5953 42.6272 58.8167 42.2534 61.4576 42.0732C64.0485 41.8965 67.2518 41.8965 71.3177 41.8965ZM63.9895 56.7723H68.4522V62.7226C68.4522 64.3657 69.7842 65.6977 71.4273 65.6977C73.0705 65.6977 74.4025 64.3657 74.4025 62.7226V56.7723H78.8652C80.2477 56.7723 80.9389 56.7723 81.5137 56.8866C83.8741 57.3561 85.7193 59.2013 86.1888 61.5617C86.3031 62.1365 86.3031 62.8277 86.3031 64.2102C86.3031 65.5926 86.3031 66.2838 86.1888 66.8586C85.7193 69.219 83.8741 71.0642 81.5137 71.5337C80.9389 71.6481 80.2477 71.6481 78.8652 71.6481H63.9895C62.607 71.6481 61.9158 71.6481 61.341 71.5337C58.9806 71.0642 57.1354 69.219 56.6659 66.8586C56.5516 66.2838 56.5516 65.5926 56.5516 64.2102C56.5516 62.8277 56.5516 62.1365 56.6659 61.5617C57.1354 59.2013 58.9806 57.3561 61.341 56.8866C61.9158 56.7723 62.607 56.7723 63.9895 56.7723Z" fill="#60A5FA"/>
</svg>
