<svg width="143" height="144" viewBox="0 0 143 144" fill="none" xmlns="http://www.w3.org/2000/svg">
<rect x="0.0253906" y="0.255859" width="142.808" height="142.808" rx="53.5528" fill="#EDE9FE"/>
<path fill-rule="evenodd" clip-rule="evenodd" d="M74.4064 38.9336C87.5515 38.9336 98.2076 49.5898 98.2076 62.7348V68.6455C98.2076 73.2961 96.2565 77.7334 92.8292 80.8769C90.6306 82.8934 89.379 85.7399 89.379 88.7232V101.412C89.379 103.055 88.047 104.387 86.4038 104.387H62.5058C60.8626 104.387 59.5306 103.055 59.5306 101.412V90.9989C59.5306 90.1773 58.8646 89.5113 58.043 89.5113C53.9352 89.5113 50.6051 86.1812 50.6051 82.0734V80.5405C47.1109 80.0841 44.976 76.2661 46.6135 72.9909L50.1616 65.8947C50.4533 65.3114 50.6051 64.6682 50.6051 64.016V62.7348C50.6051 49.5898 61.2613 38.9336 74.4064 38.9336ZM77.7724 77.2198L84.8195 70.1727C85.7019 69.2903 86.1432 68.849 86.4302 68.4043C87.4888 66.7641 87.4888 64.6559 86.4302 63.0157C86.1432 62.571 85.702 62.1298 84.8195 61.2473C83.937 60.3648 83.4957 59.9235 83.051 59.6365C81.4108 58.5779 79.3027 58.5779 77.6624 59.6365C77.2177 59.9235 76.7765 60.3648 75.894 61.2472L74.4064 62.7348L72.9188 61.2473C72.0364 60.3648 71.5951 59.9235 71.1504 59.6365C69.5102 58.5779 67.402 58.5779 65.7618 59.6365C65.3171 59.9235 64.8759 60.3648 63.9934 61.2473C63.1109 62.1298 62.6697 62.571 62.3826 63.0157C61.324 64.6559 61.324 66.7641 62.3826 68.4043C62.6697 68.849 63.1109 69.2903 63.9934 70.1727L71.0404 77.2198C72.2186 78.398 72.8077 78.9871 73.4871 79.2078C74.0846 79.402 74.7283 79.402 75.3258 79.2078C76.0051 78.9871 76.5942 78.398 77.7724 77.2198Z" fill="#8B5CF6"/>
</svg>
