<svg width="1022" height="691" viewBox="0 0 1022 691" fill="none" xmlns="http://www.w3.org/2000/svg">
<path d="M617.042 188.157H331.766L167.626 53.8809H452.902L617.042 188.157Z" fill="#647067"/>
<path d="M617.042 223.543H331.766L167.626 89.3535H452.902L617.042 223.543Z" fill="#313A34"/>
<path d="M617.042 259.014H331.766L167.626 124.738H452.902L617.042 259.014Z" fill="#48524B"/>
<path d="M405.053 259.014H331.766L167.626 124.738H452.989C508.019 169.814 476.178 259.014 405.053 259.014Z" fill="#313A34"/>
<path d="M617.038 188.157V223.543L452.898 89.3532V53.8809L617.038 188.157Z" fill="#647067"/>
<path d="M617.038 223.543V259.015L452.898 124.739V89.3535L617.038 223.543Z" fill="#48524B"/>
<path d="M167.626 53.8809V55.4382V89.3532H210.889H452.902V53.8809H167.626Z" fill="#849087"/>
<path d="M167.626 89.3535V90.8243V124.739H210.889H452.902V89.3535H167.626Z" fill="#313A34"/>
<path d="M480.413 609.933C479.115 609.933 477.73 609.846 476.346 609.587C463.627 607.337 455.147 595.311 457.397 582.593L504.294 314.041C506.544 301.323 518.571 292.845 531.29 295.094C544.009 297.343 552.489 309.369 550.239 322.088L503.342 590.639C501.352 601.973 491.488 609.933 480.413 609.933Z" fill="#647067"/>
<path d="M527.312 341.38C526.014 341.38 524.63 341.294 523.245 341.034C510.526 338.785 502.047 326.759 504.296 314.041L516.756 242.664C519.006 229.945 531.033 221.467 543.752 223.716C556.471 225.966 564.951 237.992 562.701 250.71L550.242 322.087C548.251 333.421 538.387 341.38 527.312 341.38Z" fill="#48524B"/>
<path d="M239.006 609.933C237.709 609.933 236.324 609.846 234.94 609.587C222.22 607.337 213.741 595.311 215.991 582.593L262.888 314.041C265.137 301.323 277.164 292.845 289.884 295.094C302.603 297.343 311.083 309.369 308.833 322.088L261.936 590.639C259.946 601.973 250.082 609.933 239.006 609.933Z" fill="#647067"/>
<path d="M285.906 341.379C284.608 341.379 283.224 341.293 281.839 341.033C269.12 338.784 260.64 326.758 262.89 314.039L287.29 174.313C289.54 161.595 301.567 153.116 314.286 155.366C327.006 157.615 335.485 169.641 333.236 182.359L308.835 322.086C306.845 333.419 296.981 341.379 285.906 341.379Z" fill="#313A34"/>
<path d="M430.401 637.01H222.306C196.521 637.01 175.668 616.16 175.668 590.377C175.668 564.595 196.521 543.744 222.306 543.744H430.401C456.185 543.744 477.038 564.595 477.038 590.377C477.038 616.073 456.185 637.01 430.401 637.01Z" fill="#48524B"/>
<path d="M496.42 637.01H222.306C196.521 637.01 175.668 616.16 175.668 590.377C175.668 564.595 196.521 543.744 222.306 543.744H496.42C522.205 543.744 543.058 564.595 543.058 590.377C543.058 616.16 522.205 637.01 496.42 637.01Z" fill="#313A34"/>
<path d="M877.829 637.01H490.192C464.407 637.01 443.555 616.16 443.555 590.377C443.555 564.595 464.407 543.744 490.192 543.744H877.829C903.614 543.744 924.466 564.595 924.466 590.377C924.466 616.16 903.614 637.01 877.829 637.01Z" fill="#48524B"/>
<path d="M626.988 168.171H537.952C532.761 168.171 528.607 164.018 528.607 158.827C528.607 153.636 532.761 149.483 537.952 149.483H626.988C632.179 149.483 636.332 153.636 636.332 158.827C636.332 164.018 632.093 168.171 626.988 168.171Z" fill="#48524B"/>
<path d="M242.815 168.171H153.779C148.588 168.171 144.435 164.018 144.435 158.827C144.435 153.636 148.588 149.483 153.779 149.483H242.815C248.006 149.483 252.16 153.636 252.16 158.827C252.16 164.018 247.92 168.171 242.815 168.171Z" fill="#313A34"/>
<path d="M877.826 613.651H510.004C497.112 613.651 486.729 603.182 486.729 590.378C486.729 577.573 497.198 567.104 510.004 567.104H877.826C890.719 567.104 901.102 577.573 901.102 590.378C901.102 603.182 890.719 613.651 877.826 613.651Z" fill="#647067"/>
<path d="M559.156 185.56C557.079 185.56 555.003 184.868 553.272 183.484L504.125 143.253C500.145 139.965 499.539 134.082 502.827 130.102C506.115 126.123 511.999 125.517 515.979 128.805L565.126 169.036C569.106 172.323 569.712 178.206 566.424 182.186C564.607 184.436 561.925 185.56 559.156 185.56Z" fill="#FACC15"/>
<path d="M337.909 98.6098H258.305C253.113 98.6098 248.96 94.4569 248.96 89.2658C248.96 84.0747 253.113 79.9219 258.305 79.9219H337.909C343.1 79.9219 347.254 84.0747 347.254 89.2658C347.254 94.4569 343.1 98.6098 337.909 98.6098Z" fill="#FACC15"/>
<path d="M872.727 602.924C879.656 602.924 885.273 597.308 885.273 590.379C885.273 583.451 879.656 577.834 872.727 577.834C865.798 577.834 860.181 583.451 860.181 590.379C860.181 597.308 865.798 602.924 872.727 602.924Z" fill="#FACC15"/>
<path d="M518.573 602.924C525.502 602.924 531.119 597.308 531.119 590.379C531.119 583.451 525.502 577.834 518.573 577.834C511.644 577.834 506.026 583.451 506.026 590.379C506.026 597.308 511.644 602.924 518.573 602.924Z" fill="#FACC15"/>
<path d="M119.095 458.501C76.2628 458.501 41.4385 423.918 41.4385 381.175C41.4385 338.526 76.1696 303.85 119.095 303.85C161.927 303.85 196.751 338.433 196.751 381.175C196.751 423.825 162.02 458.501 119.095 458.501Z" fill="#E3E4E3"/>
<path d="M119.84 354.66H96.9344C74.4011 354.66 55.406 338.527 51.8677 316.368L44.0462 267.784C43.3013 263.241 46.4671 258.883 51.0297 258.141C55.5922 257.492 59.9685 260.552 60.7134 265.188L68.5349 313.771C70.7696 327.772 82.6881 337.878 96.9344 337.878H119.84C134.087 337.878 146.005 327.679 148.24 313.771C148.985 309.228 153.268 306.076 157.923 306.818C162.486 307.559 165.652 311.824 164.907 316.46C161.369 338.62 142.467 354.66 119.84 354.66Z" fill="#E3E4E3"/>
<path d="M95.8156 446.264C131.916 446.264 161.181 417.124 161.181 381.177C161.181 345.23 131.916 316.09 95.8156 316.09C59.7153 316.09 30.4502 345.23 30.4502 381.177C30.4502 417.124 59.7153 446.264 95.8156 446.264Z" fill="#C5C8C6"/>
<path d="M128.501 381.176C128.501 399.163 116.024 414.183 99.2634 418.17C96.3769 418.912 93.3041 419.283 90.2314 419.283C69.0947 419.283 51.9619 402.223 51.9619 381.176C51.9619 360.129 69.1878 343.069 90.3245 343.069C93.3972 343.069 96.47 343.44 99.3565 344.182C116.117 348.169 128.501 363.189 128.501 381.176Z" fill="#A2A9A4"/>
<path d="M99.3527 418.171C115.5 418.171 128.59 401.608 128.59 381.177C128.59 360.745 115.5 344.183 99.3527 344.183C83.2053 344.183 70.1152 360.745 70.1152 381.177C70.1152 401.608 83.2053 418.171 99.3527 418.171Z" fill="#E3E4E3"/>
<path d="M156.62 323.507C156.155 323.507 155.689 323.507 155.317 323.414C150.754 322.673 147.588 318.408 148.333 313.772L155.317 270.195C156.062 265.652 160.345 262.499 165.001 263.241C169.563 263.983 172.729 268.248 171.984 272.884L165.001 316.461C164.349 320.54 160.717 323.507 156.62 323.507Z" fill="#E3E4E3"/>
<path d="M164.441 279.095C163.789 279.095 163.137 279.002 162.392 278.91C155.502 277.797 150.753 271.307 151.87 264.446C152.522 260.459 151.405 256.472 148.798 253.412C146.191 250.353 142.466 248.591 138.369 248.591H78.4043C74.3073 248.591 70.5828 250.26 67.9756 253.412C65.3684 256.472 64.2511 260.459 64.9029 264.446C66.0202 271.307 61.2715 277.797 54.3811 278.91C47.4907 280.022 40.9728 275.294 39.8555 268.433C38.0863 257.214 41.2522 245.717 48.7012 237.094C56.1503 228.472 66.9514 223.465 78.4043 223.465H138.369C149.822 223.465 160.623 228.472 168.072 237.094C175.521 245.81 178.687 257.214 176.918 268.433C175.894 274.645 170.586 279.095 164.441 279.095Z" fill="#C5C8C6"/>
<path d="M790.13 446.144C790.13 456.588 784.625 465.111 777.764 465.111C770.819 465.111 765.313 456.672 765.313 446.144C765.313 435.699 770.819 427.177 777.679 427.177C784.54 427.177 790.13 435.699 790.13 446.144Z" fill="#E3E4E3"/>
<path d="M803.088 488.171C818.104 488.171 830.277 469.541 830.277 446.561C830.277 423.58 818.104 404.95 803.088 404.95C788.073 404.95 775.9 423.58 775.9 446.561C775.9 469.541 788.073 488.171 803.088 488.171Z" fill="#C5C8C6"/>
<path d="M827.396 404.95H800.208V488.255H827.396V404.95Z" fill="#C5C8C6"/>
<path d="M827.396 488.171C842.412 488.171 854.584 469.541 854.584 446.561C854.584 423.58 842.412 404.95 827.396 404.95C812.381 404.95 800.208 423.58 800.208 446.561C800.208 469.541 812.381 488.171 827.396 488.171Z" fill="#E3E4E3"/>
<path d="M906.337 459.262H841.712C834.597 459.262 828.838 453.58 828.838 446.561C828.838 439.543 834.597 433.944 841.627 433.944H906.252C913.367 433.944 919.041 439.626 919.041 446.561C919.041 453.496 913.367 459.262 906.337 459.262Z" fill="#C5C8C6"/>
<path d="M961.306 459.261H906.337C899.223 459.261 893.548 453.579 893.548 446.644C893.548 439.709 899.307 434.027 906.337 434.027H961.306C968.421 434.027 974.096 439.709 974.096 446.644C974.096 453.579 968.336 459.261 961.306 459.261Z" fill="#E3E4E3"/>
<path d="M943.944 488.171C958.96 488.171 971.132 469.541 971.132 446.561C971.132 423.58 958.96 404.95 943.944 404.95C928.928 404.95 916.756 423.58 916.756 446.561C916.756 469.541 928.928 488.171 943.944 488.171Z" fill="#C5C8C6"/>
<path d="M968.251 404.95H941.062V488.255H968.251V404.95Z" fill="#C5C8C6"/>
<path d="M968.333 488.171C983.348 488.171 995.521 469.541 995.521 446.561C995.521 423.58 983.348 404.95 968.333 404.95C953.317 404.95 941.145 423.58 941.145 446.561C941.145 469.541 953.317 488.171 968.333 488.171Z" fill="#E3E4E3"/>
<path d="M987.986 465.111C994.816 465.111 1000.35 456.619 1000.35 446.144C1000.35 435.669 994.816 427.177 987.986 427.177C981.157 427.177 975.62 435.669 975.62 446.144C975.62 456.619 981.157 465.111 987.986 465.111Z" fill="#C5C8C6"/>
<g clip-path="url(#clip0_85_11568)">
<path d="M820.476 124.98L809.494 214.777C808.01 226.57 797.819 235.366 785.649 235.366H748.645C736.475 235.366 726.284 226.473 724.899 214.777L713.916 124.98H820.476Z" fill="#C5C8C6"/>
<path d="M820.476 124.98H713.916C713.916 113.091 718.863 102.362 726.778 94.5326C734.001 87.4764 743.599 82.9334 754.383 82.0634C755.571 81.9668 756.758 81.8701 757.945 81.8701H776.447C800.787 81.8701 820.476 101.202 820.476 124.98Z" fill="#C5C8C6"/>
<path d="M767.545 108.839C761.41 108.839 756.364 103.909 756.364 97.916V70.7546C756.364 64.7617 761.41 59.832 767.545 59.832C773.679 59.832 778.725 64.7617 778.725 70.7546V97.916C778.725 103.909 773.778 108.839 767.545 108.839Z" fill="#C5C8C6"/>
<path d="M742.512 85.5437C742.512 79.5507 747.558 74.6211 753.692 74.6211H781.495C787.629 74.6211 792.675 79.5507 792.675 85.5437C792.675 91.5366 787.629 96.4662 781.495 96.4662H753.692C747.459 96.4662 742.512 91.6332 742.512 85.5437Z" fill="#C5C8C6"/>
<path d="M794.949 124.98L783.967 214.777C782.483 226.57 772.292 235.366 760.122 235.366H748.645C736.475 235.366 726.284 226.473 724.899 214.777L713.916 124.98H794.949Z" fill="#E3E4E3"/>
<path d="M794.949 124.981H713.916C713.916 113.092 718.863 102.363 726.778 94.5336C734.001 87.4774 743.599 82.9344 754.383 82.0645C777.041 83.8043 794.949 102.363 794.949 124.981Z" fill="#E3E4E3"/>
<path d="M756.365 108.839C750.231 108.839 745.185 103.909 745.185 97.916V70.7546C745.185 64.7617 750.132 59.832 756.365 59.832C762.499 59.832 767.545 64.7617 767.545 70.7546V97.916C767.545 103.909 762.499 108.839 756.365 108.839Z" fill="#E3E4E3"/>
<path d="M731.232 85.5437C731.232 79.5507 736.278 74.6211 742.413 74.6211H770.215C776.35 74.6211 781.396 79.5507 781.396 85.5437C781.396 91.5366 776.35 96.4662 770.215 96.4662H742.512C736.278 96.4662 731.232 91.6332 731.232 85.5437Z" fill="#E3E4E3"/>
<path d="M830.767 124.981C830.767 127.978 829.48 130.684 827.502 132.714C825.523 134.647 822.653 135.904 819.586 135.904H714.015C707.881 135.904 702.835 130.974 702.835 124.981C702.835 118.892 707.881 114.059 714.015 114.059H819.586C825.82 114.059 830.767 118.892 830.767 124.981Z" fill="#C5C8C6"/>
<path d="M806.427 124.981C806.427 127.978 805.141 130.684 803.162 132.714C801.183 134.647 798.314 135.904 795.247 135.904H714.015C707.881 135.904 702.835 130.974 702.835 124.981C702.835 118.892 707.881 114.059 714.015 114.059H795.247C801.48 114.059 806.427 118.892 806.427 124.981Z" fill="#C5C8C6"/>
</g>
<defs>
<clipPath id="clip0_85_11568">
<rect width="127.932" height="175.534" fill="white" transform="translate(702.835 59.8311)"/>
</clipPath>
</defs>
</svg>
