<svg width="20" height="22" viewBox="0 0 20 22" fill="none" xmlns="http://www.w3.org/2000/svg">
<path d="M16 8C17.0609 8 18.0783 7.57857 18.8284 6.82843C19.5786 6.07828 20 5.06087 20 4C20 2.93913 19.5786 1.92172 18.8284 1.17157C18.0783 0.421428 17.0609 0 16 0C14.9391 0 13.9217 0.421428 13.1716 1.17157C12.4214 1.92172 12 2.93913 12 4C12 5.06087 12.4214 6.07828 13.1716 6.82843C13.9217 7.57857 14.9391 8 16 8ZM4 8C5.06087 8 6.07828 7.57857 6.82843 6.82843C7.57857 6.07828 8 5.06087 8 4C8 2.93913 7.57857 1.92172 6.82843 1.17157C6.07828 0.421428 5.06087 0 4 0C2.93913 0 1.92172 0.421428 1.17157 1.17157C0.421427 1.92172 0 2.93913 0 4C0 5.06087 0.421427 6.07828 1.17157 6.82843C1.92172 7.57857 2.93913 8 4 8Z" fill="#323062"/>
<path d="M16 21.7998C17.0609 21.7998 18.0783 21.3784 18.8284 20.6282C19.5786 19.8781 20 18.8607 20 17.7998C20 16.7389 19.5786 15.7215 18.8284 14.9714C18.0783 14.2212 17.0609 13.7998 16 13.7998C14.9391 13.7998 13.9217 14.2212 13.1716 14.9714C12.4214 15.7215 12 16.7389 12 17.7998C12 18.8607 12.4214 19.8781 13.1716 20.6282C13.9217 21.3784 14.9391 21.7998 16 21.7998ZM4 21.7998C5.06087 21.7998 6.07828 21.3784 6.82843 20.6282C7.57857 19.8781 8 18.8607 8 17.7998C8 16.7389 7.57857 15.7215 6.82843 14.9714C6.07828 14.2212 5.06087 13.7998 4 13.7998C2.93913 13.7998 1.92172 14.2212 1.17157 14.9714C0.421427 15.7215 0 16.7389 0 17.7998C0 18.8607 0.421427 19.8781 1.17157 20.6282C1.92172 21.3784 2.93913 21.7998 4 21.7998Z" fill="#323062"/>
</svg>
