<svg width="20" height="29" viewBox="0 0 20 29" fill="none" xmlns="http://www.w3.org/2000/svg">
<path d="M3.22705 17.9124L3.22705 17.9117C3.22705 17.3355 3.69636 16.8662 4.27252 16.8662C4.84853 16.8662 5.31775 17.3353 5.31799 17.9112M3.22705 17.9124L11.318 23.9117C11.318 23.3358 10.8491 22.8667 10.2735 22.8662C7.53814 22.8613 5.32321 20.6465 5.31799 17.9112M3.22705 17.9124C3.23294 21.7989 6.38531 24.9512 10.2717 24.9571H10.2725M3.22705 17.9124L10.2725 24.9571M5.31799 17.9112C5.31799 17.9114 5.31799 17.9115 5.31799 17.9117H4.81799M5.31799 17.9112C5.31799 17.9111 5.31799 17.9109 5.31799 17.9108L4.81799 17.9117M4.81799 17.9117C4.81799 17.6117 4.57254 17.3662 4.27252 17.3662C3.97251 17.3662 3.72705 17.6117 3.72705 17.9117C3.73252 21.5226 6.66161 24.4517 10.2725 24.4571L4.81799 17.9117ZM10.2725 24.9571C10.8486 24.9571 11.3179 24.4879 11.318 23.9118L10.2725 24.9571Z" fill="#323062" stroke="#323062"/>
<path d="M10.7248 0.796864C10.321 0.403878 9.67122 0.397076 9.26622 0.800283C9.07306 0.990441 6.89689 3.1405 4.76387 6.29732C2.63494 9.44809 0.5 13.6728 0.5 17.9882C0.5 23.3268 4.75011 27.6845 10 27.6845C15.2499 27.6845 19.5 23.3268 19.5 17.9882C19.5 13.6485 17.3653 9.4239 15.2351 6.27847C13.0985 3.12355 10.9178 0.983954 10.7248 0.796864ZM10 25.5936C5.9242 25.5936 2.59089 22.1911 2.59089 17.9882C2.59089 14.6857 4.10391 11.2955 5.85997 8.48393C7.38511 6.04208 9.06453 4.0822 10.0006 3.06079C10.9369 4.07877 12.6156 6.03043 14.1402 8.46785C15.8958 11.2747 17.4091 14.6663 17.4091 17.9882C17.4091 22.1909 14.0705 25.5936 10 25.5936Z" fill="#323062" stroke="#323062"/>
</svg>
