<svg width="105" height="88" viewBox="0 0 105 88" fill="none" xmlns="http://www.w3.org/2000/svg">
<path d="M82.375 22.5C82.375 25.1924 80.1924 27.375 77.5 27.375C74.8076 27.375 72.625 25.1924 72.625 22.5C72.625 19.8076 74.8076 17.625 77.5 17.625C80.1924 17.625 82.375 19.8076 82.375 22.5Z" stroke="black" stroke-width="1.08333" stroke-linecap="round" stroke-linejoin="round"/>
<path d="M103.375 81.5C103.375 84.1924 101.192 86.375 98.5 86.375C95.8076 86.375 93.625 84.1924 93.625 81.5C93.625 78.8076 95.8076 76.625 98.5 76.625C101.192 76.625 103.375 78.8076 103.375 81.5Z" stroke="black" stroke-width="1.08333" stroke-linecap="round" stroke-linejoin="round"/>
<g clip-path="url(#clip0_33_382)">
<path d="M42.75 50C42.75 52.0711 41.0711 53.75 39 53.75C36.9289 53.75 35.25 52.0711 35.25 50C35.25 47.9289 36.9289 46.25 39 46.25C41.0711 46.25 42.75 47.9289 42.75 50Z" stroke="black" stroke-width="0.833333" stroke-linecap="round" stroke-linejoin="round"/>
</g>
<path d="M44.375 6.5C44.375 9.19241 42.1924 11.375 39.5 11.375C36.8076 11.375 34.625 9.19241 34.625 6.5C34.625 3.80761 36.8076 1.625 39.5 1.625C42.1924 1.625 44.375 3.80761 44.375 6.5Z" stroke="black" stroke-width="1.08333" stroke-linecap="round" stroke-linejoin="round"/>
<path d="M10.5 76C10.5 78.4853 8.4853 80.5 6 80.5C3.51472 80.5 1.5 78.4853 1.5 76C1.5 73.5147 3.51472 71.5 6 71.5C8.4853 71.5 10.5 73.5147 10.5 76Z" stroke="black" stroke-linecap="round" stroke-linejoin="round"/>
<defs>
<clipPath id="clip0_33_382">
<rect width="10" height="10" fill="white" transform="translate(34 45)"/>
</clipPath>
</defs>
</svg>
