<svg width="143" height="144" viewBox="0 0 143 144" fill="none" xmlns="http://www.w3.org/2000/svg">
<rect x="0.0253906" y="0.280273" width="142.808" height="142.808" rx="53.5528" fill="#FEF9C3"/>
<path fill-rule="evenodd" clip-rule="evenodd" d="M51.7339 51.1167C53.2082 47.5574 56.0043 44.7123 59.5288 43.1747C59.5329 44.004 59.5464 44.7447 59.5906 45.3919C59.6575 46.3732 59.8048 47.3547 60.2064 48.3244C61.1123 50.5114 62.8499 52.2489 65.0369 53.1548C66.0066 53.5565 66.9881 53.7037 67.9694 53.7707C68.9014 53.8343 70.0274 53.8343 71.3325 53.8342H71.5228C72.8279 53.8343 73.9539 53.8343 74.8859 53.7707C75.8672 53.7037 76.8488 53.5565 77.8184 53.1548C80.0054 52.2489 81.743 50.5114 82.6489 48.3244C83.0505 47.3547 83.1978 46.3732 83.2648 45.3919C83.3089 44.7447 83.3224 44.004 83.3265 43.1747C86.8511 44.7123 89.6471 47.5574 91.1214 51.1167C91.7495 52.6331 92.0101 54.2346 92.1336 56.0457C92.2538 57.8069 92.2538 59.971 92.2538 62.6538V80.7163C92.2538 83.3991 92.2538 85.5634 92.1336 87.3247C92.0101 89.1358 91.7495 90.7372 91.1214 92.2537C89.6116 95.8986 86.7157 98.7946 83.0707 100.304C81.5543 100.933 79.9528 101.193 78.1417 101.317C76.3804 101.437 74.2162 101.437 71.5333 101.437H71.322C68.6391 101.437 66.475 101.437 64.7136 101.317C62.9025 101.193 61.3011 100.933 59.7846 100.304C56.1396 98.7946 53.2437 95.8986 51.7339 92.2537C51.1058 90.7372 50.8453 89.1358 50.7217 87.3247C50.6015 85.5634 50.6015 83.3992 50.6016 80.7164V62.654C50.6015 59.9712 50.6015 57.807 50.7217 56.0457C50.8453 54.2346 51.1058 52.6331 51.7339 51.1167ZM71.4277 92.5113C73.0708 92.5113 74.4028 91.1792 74.4028 89.5361C74.4028 87.893 73.0708 86.5609 71.4277 86.5609C69.7845 86.5609 68.4525 87.893 68.4525 89.5361C68.4525 91.1792 69.7845 92.5113 71.4277 92.5113Z" fill="#FACC15"/>
<path d="M71.5334 41.9336C73.8407 41.9336 75.7643 41.9336 77.378 42.01C77.3779 43.3936 77.3755 44.2944 77.3283 44.9868C77.282 45.6651 77.2028 45.9235 77.1515 46.0473C76.8495 46.7763 76.2704 47.3555 75.5414 47.6574C75.4176 47.7087 75.1592 47.7879 74.4809 47.8342C73.7758 47.8823 72.8546 47.8839 71.4277 47.8839C70.0007 47.8839 69.0795 47.8823 68.3744 47.8342C67.6961 47.7879 67.4378 47.7087 67.314 47.6574C66.585 47.3555 66.0058 46.7763 65.7038 46.0473C65.6525 45.9235 65.5733 45.6651 65.5271 44.9868C65.4798 44.2944 65.4774 43.3936 65.4773 42.01C67.091 41.9336 69.0147 41.9336 71.3219 41.9336H71.5334Z" fill="#FACC15"/>
</svg>
