<svg width="143" height="144" viewBox="0 0 143 144" fill="none" xmlns="http://www.w3.org/2000/svg">
<rect x="0.0253906" y="0.230469" width="142.808" height="142.808" rx="53.5528" fill="#ECFCCB"/>
<path d="M53.5778 62.7093H57.743C59.4093 62.7093 60.2424 62.7093 60.8788 62.3851C61.4386 62.0998 61.8938 61.6447 62.179 61.0849C62.5033 60.4485 62.5033 59.6153 62.5033 57.9491V53.7839C62.5033 52.4019 62.5033 51.7109 62.5949 51.1327C63.0989 47.9501 65.595 45.454 68.7776 44.95C69.3558 44.8584 70.0468 44.8584 71.4288 44.8584C72.8107 44.8584 73.5017 44.8584 74.0799 44.95C77.2625 45.454 79.7586 47.9501 80.2627 51.1327C80.3542 51.7109 80.3542 52.4019 80.3542 53.7839V57.9491C80.3542 59.6153 80.3542 60.4485 80.6785 61.0849C80.9637 61.6447 81.4189 62.0998 81.9787 62.3851C82.6151 62.7093 83.4482 62.7093 85.1145 62.7093H89.2797C90.6617 62.7093 91.3526 62.7093 91.9308 62.8009C95.1134 63.305 97.6095 65.8011 98.1136 68.9837C98.2052 69.5619 98.2052 70.2528 98.2052 71.6348C98.2052 73.0168 98.2052 73.7078 98.1136 74.2859C97.6095 77.4685 95.1134 79.9646 91.9308 80.4687C91.3526 80.5603 90.6617 80.5603 89.2797 80.5603H85.1145C83.4482 80.5603 82.6151 80.5603 81.9787 80.8846C81.4189 81.1698 80.9637 81.6249 80.6785 82.1847C80.3542 82.8212 80.3542 83.6543 80.3542 85.3205V89.4857C80.3542 90.8677 80.3542 91.5587 80.2627 92.1369C79.7586 95.3195 77.2625 97.8156 74.0799 98.3196C73.5017 98.4112 72.8107 98.4112 71.4288 98.4112C70.0468 98.4112 69.3558 98.4112 68.7776 98.3196C65.595 97.8156 63.0989 95.3195 62.5949 92.1369C62.5033 91.5587 62.5033 90.8677 62.5033 89.4858V85.3205C62.5033 83.6543 62.5033 82.8212 62.179 82.1847C61.8938 81.6249 61.4386 81.1698 60.8788 80.8846C60.2424 80.5603 59.4093 80.5603 57.743 80.5603H53.5778C52.1958 80.5603 51.5049 80.5603 50.9267 80.4687C47.7441 79.9646 45.248 77.4685 44.7439 74.2859C44.6523 73.7078 44.6523 73.0168 44.6523 71.6348C44.6523 70.2528 44.6523 69.5619 44.7439 68.9837C45.248 65.8011 47.7441 63.305 50.9267 62.8009C51.5049 62.7093 52.1958 62.7093 53.5778 62.7093Z" fill="#84CC16"/>
</svg>
