<svg width="845" height="891" viewBox="0 0 845 891" fill="none" xmlns="http://www.w3.org/2000/svg">
<rect x="6.02148" y="65.9941" width="761.64" height="761.64" rx="285.615" fill="white"/>
<path fill-rule="evenodd" clip-rule="evenodd" d="M351.629 766.66H418.338C450.41 766.66 476.709 740.308 476.709 708.172V650.327C476.709 649.899 476.495 649.685 476.067 649.685H293.899C293.472 649.685 293.258 649.899 293.258 650.327V708.172C293.258 740.523 319.557 766.66 351.629 766.66Z" fill="#C5C8C6"/>
<path fill-rule="evenodd" clip-rule="evenodd" d="M317.847 140.651H452.121C532.728 140.651 598.796 206.638 598.796 287.621V375.245C598.796 407.81 572.284 434.59 539.57 434.59H230.398C197.898 434.59 171.172 407.81 171.172 375.245V287.621C171.172 206.852 237.24 140.651 317.847 140.651Z" fill="#F5F5F5"/>
<path fill-rule="evenodd" clip-rule="evenodd" d="M378.782 728.315H390.969C471.576 728.315 537.644 662.329 537.644 581.346V436.09C537.644 435.234 537.003 434.591 536.148 434.591H233.817C232.962 434.591 232.32 435.234 232.32 436.09V581.346C232.32 662.114 298.174 728.315 378.782 728.315Z" fill="#A2A9A4"/>
<path fill-rule="evenodd" clip-rule="evenodd" d="M378.782 728.312H390.969C471.576 728.312 537.644 662.325 537.644 581.342V571.487C537.644 517.927 493.813 474.008 440.36 474.008H329.605C276.152 474.008 232.32 517.927 232.32 571.487V581.342C232.32 662.111 298.174 728.312 378.782 728.312Z" fill="#F5F5F5"/>
<path fill-rule="evenodd" clip-rule="evenodd" d="M359.324 231.486H410.638C441.427 231.486 466.657 256.767 466.657 287.617V321.039C466.657 333.465 456.394 343.748 443.993 343.748H325.969C313.568 343.748 303.305 333.679 303.305 321.039V287.617C303.305 256.767 328.535 231.486 359.324 231.486Z" fill="#647067"/>
<path fill-rule="evenodd" clip-rule="evenodd" d="M395.676 257.84L422.617 304.759C424.969 308.615 424.969 313.114 422.617 317.185C420.265 321.041 416.416 323.398 411.926 323.398H357.832C353.341 323.398 349.493 321.041 347.141 317.185C344.789 313.328 344.789 308.829 347.141 304.759L374.081 257.84C376.433 253.984 380.282 251.627 384.772 251.627C389.476 251.841 393.324 253.984 395.676 257.84Z" fill="#84CC16"/>
<path opacity="0.64" fill-rule="evenodd" clip-rule="evenodd" d="M343.506 140.651H404.442C485.05 140.651 551.118 206.638 551.118 287.621V375.245C551.118 407.81 524.605 434.59 491.892 434.59H430.955C463.455 434.59 490.181 408.024 490.181 375.245V287.621C489.967 206.852 424.113 140.651 343.506 140.651Z" fill="#E3E4E3"/>
<path fill-rule="evenodd" clip-rule="evenodd" d="M359.324 231.486H380.277C349.488 231.486 324.258 256.767 324.258 287.617V321.039C324.258 333.465 334.307 343.748 346.922 343.748H325.969C313.568 343.748 303.305 333.679 303.305 321.039V287.617C303.305 256.767 328.535 231.486 359.324 231.486Z" fill="#48524B"/>
<path fill-rule="evenodd" clip-rule="evenodd" d="M386.483 123.939C400.594 123.939 412.354 112.37 412.354 98.2298C412.354 84.0899 400.808 72.3066 386.483 72.3066C372.371 72.3066 360.611 83.8756 360.611 98.2298C360.611 112.37 372.371 123.939 386.483 123.939Z" fill="#C5C8C6"/>
<path fill-rule="evenodd" clip-rule="evenodd" d="M386.48 59.8802C394.818 59.8802 401.66 53.0245 401.66 44.6691C401.66 36.3137 394.818 29.458 386.48 29.458C378.141 29.458 371.299 36.3137 371.299 44.6691C371.299 53.0245 378.141 59.8802 386.48 59.8802Z" fill="#C5C8C6"/>
<path fill-rule="evenodd" clip-rule="evenodd" d="M386.48 15.9624C390.757 15.9624 394.178 12.5346 394.178 8.24978C394.178 3.96496 390.757 0.537109 386.48 0.537109C382.204 0.537109 378.783 3.96496 378.783 8.24978C378.783 12.5346 382.204 15.9624 386.48 15.9624Z" fill="#C5C8C6"/>
<path fill-rule="evenodd" clip-rule="evenodd" d="M157.487 644.543L163.046 641.329C199.395 620.548 212.223 573.843 191.697 537.422L189.132 532.923C175.448 508.714 144.445 500.144 120.284 513.856L70.2519 542.136C46.0911 555.847 37.5386 586.912 51.2226 611.121L53.7884 615.62C74.5282 652.255 121.139 665.11 157.487 644.543Z" fill="#C5C8C6"/>
<path fill-rule="evenodd" clip-rule="evenodd" d="M615.474 644.543L609.915 641.329C573.567 620.548 560.738 573.843 581.264 537.422L583.83 532.923C597.514 508.714 628.516 500.144 652.677 513.856L702.496 542.136C726.656 555.847 735.209 586.912 721.525 611.121L718.959 615.62C698.433 652.255 651.822 665.11 615.474 644.543Z" fill="#C5C8C6"/>
<path fill-rule="evenodd" clip-rule="evenodd" d="M384.129 890.289C412.994 890.289 436.941 868.008 439.507 839.729C429.03 854.725 411.497 864.366 392.04 864.366H376.218C356.548 864.366 339.229 854.511 328.752 839.729C331.318 868.008 355.265 890.289 384.129 890.289Z" fill="#C5C8C6"/>
<path fill-rule="evenodd" clip-rule="evenodd" d="M384.128 839.725C404.868 839.725 421.973 823.871 423.684 803.519C416.2 814.231 403.585 821.301 389.688 821.301H378.356C364.244 821.301 351.843 814.231 344.359 803.519C346.284 823.871 363.389 839.725 384.128 839.725Z" fill="#C5C8C6"/>
<g filter="url(#filter0_d_85_10378)">
<path fill-rule="evenodd" clip-rule="evenodd" d="M716.554 30.293H610.241C565.658 30.293 529.649 66.3022 529.649 110.885V152.896C529.649 185.476 549.368 213.769 577.661 226.629V230.916V278.928L629.961 233.488H716.554C761.137 233.488 797.146 197.479 797.146 152.896V110.885C797.146 66.3022 761.137 30.293 716.554 30.293Z" fill="white"/>
<path fill-rule="evenodd" clip-rule="evenodd" d="M611.095 92.8877H701.118C707.977 92.8877 713.978 98.8892 713.978 105.748C713.978 112.607 707.977 118.609 701.118 118.609H611.095C604.236 118.609 598.234 112.607 598.234 105.748C598.234 98.0319 604.236 92.8877 611.095 92.8877Z" fill="#A2A9A4"/>
<path fill-rule="evenodd" clip-rule="evenodd" d="M611.099 141.751H642.821C649.68 141.751 655.682 147.753 655.682 154.611C655.682 161.47 649.68 167.472 642.821 167.472H610.241C603.382 167.472 597.381 161.47 597.381 154.611C598.238 146.895 604.24 141.751 611.099 141.751Z" fill="#A2A9A4"/>
</g>
<g filter="url(#filter1_d_85_10378)">
<path fill-rule="evenodd" clip-rule="evenodd" d="M107.046 193.926H186.342C218.994 193.926 246.133 221.065 246.133 253.716V284.671C246.133 308.842 231.291 330.044 210.513 339.373V342.766V378.385L171.925 344.886H107.47C74.3945 344.886 47.6796 317.747 47.6796 285.096V254.14C47.2556 221.065 74.3945 193.926 107.046 193.926Z" fill="white"/>
<path fill-rule="evenodd" clip-rule="evenodd" d="M181.25 239.299C172.345 230.394 157.927 230.394 149.022 239.299L144.782 243.539L140.541 239.299C131.636 230.394 117.219 230.394 108.314 239.299C99.409 248.204 99.409 262.621 108.314 271.526L144.782 308.418L181.674 271.526C190.155 263.045 190.155 248.204 181.25 239.299Z" fill="#F43F5E"/>
</g>
<defs>
<filter id="filter0_d_85_10378" x="482.046" y="6.49171" width="362.703" height="343.841" filterUnits="userSpaceOnUse" color-interpolation-filters="sRGB">
<feFlood flood-opacity="0" result="BackgroundImageFix"/>
<feColorMatrix in="SourceAlpha" type="matrix" values="0 0 0 0 0 0 0 0 0 0 0 0 0 0 0 0 0 0 127 0" result="hardAlpha"/>
<feOffset dy="23.8013"/>
<feGaussianBlur stdDeviation="23.8013"/>
<feComposite in2="hardAlpha" operator="out"/>
<feColorMatrix type="matrix" values="0 0 0 0 0.184314 0 0 0 0 0.235294 0 0 0 0 0.2 0 0 0 0.1 0"/>
<feBlend mode="normal" in2="BackgroundImageFix" result="effect1_dropShadow_85_10378"/>
<feBlend mode="normal" in="SourceGraphic" in2="effect1_dropShadow_85_10378" result="shape"/>
</filter>
<filter id="filter1_d_85_10378" x="0.0713196" y="170.125" width="293.664" height="279.665" filterUnits="userSpaceOnUse" color-interpolation-filters="sRGB">
<feFlood flood-opacity="0" result="BackgroundImageFix"/>
<feColorMatrix in="SourceAlpha" type="matrix" values="0 0 0 0 0 0 0 0 0 0 0 0 0 0 0 0 0 0 127 0" result="hardAlpha"/>
<feOffset dy="23.8013"/>
<feGaussianBlur stdDeviation="23.8013"/>
<feComposite in2="hardAlpha" operator="out"/>
<feColorMatrix type="matrix" values="0 0 0 0 0.184314 0 0 0 0 0.235294 0 0 0 0 0.2 0 0 0 0.1 0"/>
<feBlend mode="normal" in2="BackgroundImageFix" result="effect1_dropShadow_85_10378"/>
<feBlend mode="normal" in="SourceGraphic" in2="effect1_dropShadow_85_10378" result="shape"/>
</filter>
</defs>
</svg>
