<svg width="721" height="765" viewBox="0 0 721 765" fill="none" xmlns="http://www.w3.org/2000/svg">
<g filter="url(#filter0_d_90_1236)">
<g clip-path="url(#clip0_90_1236)">
<rect x="12" y="12" width="696.187" height="740.814" rx="142.808" fill="#918DFE"/>
<g clip-path="url(#clip1_90_1236)">
<path d="M12 240.492C12 160.512 12 120.522 27.5651 89.9743C41.2565 63.1033 63.1033 41.2565 89.9743 27.5651C120.522 12 160.512 12 240.492 12H479.695C559.674 12 599.664 12 630.212 27.5651C657.083 41.2565 678.93 63.1033 692.622 89.9743C708.187 120.522 708.187 160.512 708.187 240.492V752.814H12V240.492Z" fill="white"/>
<path fill-rule="evenodd" clip-rule="evenodd" d="M76.7229 471.755C-54.9125 508.382 -147.057 593.844 -128.409 662.658C-109.761 731.472 12.0022 758.109 143.638 721.482C275.273 684.856 367.418 599.394 348.77 530.58C330.121 461.766 208.358 435.128 76.7229 471.755Z" fill="#F5F5F5"/>
<path fill-rule="evenodd" clip-rule="evenodd" d="M560.525 -5.22779C757.978 49.1339 896.195 175.978 868.223 278.112C840.25 380.246 657.606 419.782 460.153 365.42C262.7 311.059 124.483 184.215 152.455 82.0804C180.428 -20.0537 363.072 -59.5895 560.525 -5.22779Z" fill="#F5F5F5"/>
<path fill-rule="evenodd" clip-rule="evenodd" d="M164.88 597.199H182.913C247.941 597.199 301.493 650.793 301.493 715.872C301.493 780.95 247.941 834.544 182.913 834.544H164.88C99.8528 834.544 46.3008 780.95 46.3008 715.872C46.3008 650.793 99.8528 597.199 164.88 597.199Z" fill="#313A34"/>
<path fill-rule="evenodd" clip-rule="evenodd" d="M528.814 597.199H546.847C611.874 597.199 665.426 650.793 665.426 715.872C665.426 780.95 611.874 834.544 546.847 834.544H528.814C463.786 834.544 410.234 780.95 410.234 715.872C410.234 650.793 463.24 597.199 528.814 597.199Z" fill="#313A34"/>
<path fill-rule="evenodd" clip-rule="evenodd" d="M580.731 914.391V1174.16C580.731 1296.66 480.731 1396.74 358.327 1396.74C235.922 1396.74 135.922 1296.66 135.922 1174.16V914.391C135.922 791.89 235.922 691.812 358.327 691.812C480.185 691.812 580.731 791.89 580.731 914.391Z" fill="#313A34"/>
<path fill-rule="evenodd" clip-rule="evenodd" d="M222.808 678.815H492.754C571.443 678.815 635.924 743.347 635.924 822.097C635.924 900.848 571.443 965.379 492.754 965.379H222.808C144.12 965.379 79.6387 900.848 79.6387 822.097C80.1851 743.347 144.12 678.815 222.808 678.815Z" fill="#48524B"/>
<path fill-rule="evenodd" clip-rule="evenodd" d="M506.413 620.717C469.8 643.139 458.325 690.718 480.729 727.359L718.435 1117.28C740.839 1153.38 788.38 1165.41 824.992 1142.99C861.058 1120.56 873.08 1072.99 850.676 1036.34L612.97 646.421C591.112 610.327 543.025 598.842 506.413 620.717Z" fill="#48524B"/>
<path fill-rule="evenodd" clip-rule="evenodd" d="M209.146 620.717C245.758 643.139 257.233 690.718 234.829 727.359L-2.8763 1117.28C-25.2807 1153.38 -72.8218 1165.41 -109.434 1142.99C-145.5 1120.56 -157.521 1072.99 -135.117 1036.34L102.588 646.421C124.993 610.327 173.08 598.842 209.146 620.717Z" fill="#48524B"/>
<path fill-rule="evenodd" clip-rule="evenodd" d="M257.228 714.712H459.414C528.813 714.712 585.098 771.587 585.098 840.494C585.098 909.947 528.267 966.276 459.414 966.276H257.228C187.829 966.276 131.545 909.4 131.545 840.494C130.998 771.587 187.829 714.712 257.228 714.712Z" fill="#647067"/>
<path fill-rule="evenodd" clip-rule="evenodd" d="M357.78 405.793C409.692 405.793 452.316 448.449 452.316 500.403V614.153C452.316 666.107 409.692 708.763 357.78 708.763C305.867 708.763 263.244 666.107 263.244 614.153V500.403C263.244 448.449 305.867 405.793 357.78 405.793Z" fill="#FB7185"/>
<path fill-rule="evenodd" clip-rule="evenodd" d="M501.499 170.088C460.516 153.682 413.521 173.37 396.581 214.385L378.002 260.87C361.608 301.886 381.28 348.917 422.264 365.871C463.248 382.277 510.242 362.589 527.182 321.573L545.762 275.089C562.702 233.526 542.483 186.495 501.499 170.088Z" fill="#FACC15"/>
<path fill-rule="evenodd" clip-rule="evenodd" d="M219.53 170.088C260.514 153.682 307.509 173.37 324.449 214.385L343.028 260.87C359.421 301.886 339.749 348.917 298.766 365.871C257.782 382.277 210.787 362.589 193.847 321.573L175.268 274.542C158.328 233.526 178.547 186.495 219.53 170.088Z" fill="#FACC15"/>
<path fill-rule="evenodd" clip-rule="evenodd" d="M205.868 334.699L220.622 336.34C244.666 339.074 264.338 360.949 264.338 385.012C264.338 409.075 244.666 427.122 220.622 424.387L205.868 422.747C181.825 420.012 162.152 398.137 162.152 374.074C162.699 349.465 182.371 331.965 205.868 334.699Z" fill="#FB7185"/>
<path fill-rule="evenodd" clip-rule="evenodd" d="M497.666 334.699L513.513 332.512C537.01 329.231 556.682 346.184 556.682 370.246C556.682 394.309 537.01 417.278 513.513 420.559L497.666 422.747C474.168 426.028 454.496 409.075 454.496 385.012C454.496 360.949 473.622 337.981 497.666 334.699Z" fill="#FB7185"/>
<path fill-rule="evenodd" clip-rule="evenodd" d="M358.324 207.822C439.199 207.822 505.866 273.994 505.866 355.479V418.917C505.866 499.855 439.745 566.574 358.324 566.574C277.45 566.574 210.783 500.402 210.783 418.917V355.479C211.33 274.541 277.45 207.822 358.324 207.822Z" fill="#FDA4B0"/>
<path fill-rule="evenodd" clip-rule="evenodd" d="M505.866 413.995V418.917C505.866 499.855 439.745 566.574 358.324 566.574C277.45 566.574 210.783 500.402 210.783 418.917V413.995C250.128 429.855 301.494 439.151 358.324 439.151C415.155 439.151 466.521 429.855 505.866 413.995Z" fill="#FDA4B0"/>
<path fill-rule="evenodd" clip-rule="evenodd" d="M327.178 106.651L416.25 96.26C473.627 89.6974 520.621 131.807 520.621 189.776C520.621 247.745 473.627 300.792 416.25 307.355L327.178 318.292C269.801 324.855 222.807 282.745 222.807 224.776C222.807 166.26 269.801 113.213 327.178 106.651Z" fill="#FACC15"/>
<path fill-rule="evenodd" clip-rule="evenodd" d="M187.835 132.353C193.846 123.603 205.867 120.868 215.157 126.884L257.78 154.775C266.523 160.79 269.256 172.822 263.245 182.119C257.234 190.869 245.212 193.603 235.922 187.588L193.299 159.697C184.556 153.681 182.37 141.65 187.835 132.353Z" fill="#FACC15"/>
<path fill-rule="evenodd" clip-rule="evenodd" d="M233.734 96.8062C244.117 93.525 255.046 98.9937 258.325 109.384L274.172 157.51C277.45 167.9 271.986 178.838 261.603 182.119C251.221 185.4 240.292 179.932 237.013 169.541L221.166 121.416C217.887 111.572 223.898 100.087 233.734 96.8062Z" fill="#FACC15"/>
<path fill-rule="evenodd" clip-rule="evenodd" d="M381.276 455.01C384.008 459.385 385.648 464.307 385.648 469.229C385.648 483.995 373.079 494.933 358.872 494.933C344.118 494.933 332.096 483.448 332.096 469.229C332.096 464.307 333.735 459.385 336.467 455.01C338.107 452.823 340.839 451.729 343.025 452.276C345.757 452.823 347.396 455.01 347.396 457.745C347.943 463.761 352.314 470.323 358.325 470.323C364.883 470.323 369.254 463.761 369.801 457.745C369.801 455.01 371.986 452.823 374.172 452.276C376.905 451.729 379.637 452.823 381.276 455.01Z" fill="white"/>
<path fill-rule="evenodd" clip-rule="evenodd" d="M306.959 401.964C307.506 399.229 308.052 395.948 308.599 392.667C309.692 376.807 303.681 358.761 290.019 358.761C276.358 358.761 267.069 376.807 265.429 392.667C265.429 395.948 265.429 398.683 265.429 401.964C265.429 404.151 267.069 405.792 269.254 405.792C270.894 405.792 273.08 404.151 273.626 401.964C275.812 394.308 281.276 385.011 287.834 385.011C294.938 385.011 298.763 393.761 299.309 401.964C299.309 404.151 300.948 405.792 303.134 405.792C304.774 405.792 306.413 404.151 306.959 401.964Z" fill="#F43F5E"/>
<path fill-rule="evenodd" clip-rule="evenodd" d="M410.235 401.964C409.689 399.229 409.143 395.948 408.596 392.667C407.503 376.807 413.514 358.761 427.175 358.761C440.837 358.761 450.126 376.807 451.766 392.667C451.766 395.948 451.766 398.683 451.766 401.964C451.766 404.151 450.126 405.792 447.94 405.792C446.301 405.792 444.115 404.151 443.569 401.964C441.383 394.308 435.919 385.011 429.361 385.011C422.257 385.011 418.432 393.761 417.886 401.964C417.886 404.151 416.246 405.792 414.061 405.792C411.875 405.792 410.782 404.151 410.235 401.964Z" fill="#F43F5E"/>
<path fill-rule="evenodd" clip-rule="evenodd" d="M404.77 55.7913L493.842 45.4006C551.219 38.8381 598.213 80.9477 598.213 138.917C598.213 196.886 551.219 249.933 493.842 256.495L404.77 267.433C347.393 273.996 300.398 231.886 300.398 173.917C300.398 115.401 347.393 62.3538 404.77 55.7913Z" fill="#FACC15"/>
<path fill-rule="evenodd" clip-rule="evenodd" d="M307.505 123.058L365.975 116.495C403.68 112.12 434.282 140.011 434.282 177.745C434.282 216.027 403.68 250.48 365.975 254.855L307.505 261.418C269.8 265.793 239.199 237.902 239.199 200.167C239.199 161.886 269.8 127.433 307.505 123.058Z" fill="#FDE047"/>
</g>
</g>
<rect x="13.4876" y="13.4876" width="693.212" height="737.839" rx="141.32" stroke="#918DFE" stroke-width="2.97516"/>
</g>
<defs>
<filter id="filter0_d_90_1236" x="0.0993729" y="0.0993729" width="719.989" height="764.616" filterUnits="userSpaceOnUse" color-interpolation-filters="sRGB">
<feFlood flood-opacity="0" result="BackgroundImageFix"/>
<feColorMatrix in="SourceAlpha" type="matrix" values="0 0 0 0 0 0 0 0 0 0 0 0 0 0 0 0 0 0 127 0" result="hardAlpha"/>
<feMorphology radius="11.9006" operator="dilate" in="SourceAlpha" result="effect1_dropShadow_90_1236"/>
<feOffset/>
<feComposite in2="hardAlpha" operator="out"/>
<feColorMatrix type="matrix" values="0 0 0 0 0.517647 0 0 0 0 0.8 0 0 0 0 0.0862745 0 0 0 0.25 0"/>
<feBlend mode="normal" in2="BackgroundImageFix" result="effect1_dropShadow_90_1236"/>
<feBlend mode="normal" in="SourceGraphic" in2="effect1_dropShadow_90_1236" result="shape"/>
</filter>
<clipPath id="clip0_90_1236">
<rect x="12" y="12" width="696.187" height="740.814" rx="142.808" fill="white"/>
</clipPath>
<clipPath id="clip1_90_1236">
<path d="M12 240.492C12 160.512 12 120.522 27.5651 89.9743C41.2565 63.1033 63.1033 41.2565 89.9743 27.5651C120.522 12 160.512 12 240.492 12H479.695C559.674 12 599.664 12 630.212 27.5651C657.083 41.2565 678.93 63.1033 692.622 89.9743C708.187 120.522 708.187 160.512 708.187 240.492V752.814H12V240.492Z" fill="white"/>
</clipPath>
</defs>
</svg>
