<svg width="697" height="741" viewBox="0 0 697 741" fill="none" xmlns="http://www.w3.org/2000/svg">
<g clip-path="url(#clip0_85_11473)">
<rect width="696.187" height="740.814" rx="142.808" fill="#E3E4E3"/>
<g clip-path="url(#clip1_85_11473)">
<path d="M0 228.492C0 148.512 0 108.522 15.5651 77.9743C29.2565 51.1033 51.1033 29.2565 77.9743 15.5651C108.522 0 148.512 0 228.492 0H467.695C547.674 0 587.664 0 618.212 15.5651C645.083 29.2565 666.93 51.1033 680.622 77.9743C696.187 108.522 696.187 148.512 696.187 228.492V740.814H0V228.492Z" fill="white"/>
<path fill-rule="evenodd" clip-rule="evenodd" d="M368.881 1109.63C525.043 1109.63 651.851 982.233 651.851 826.659C651.851 670.497 524.456 543.689 368.881 543.689C212.72 543.689 85.9121 671.084 85.9121 826.659C85.9121 982.82 213.307 1109.63 368.881 1109.63Z" fill="#C5C8C6"/>
<path d="M559.973 884.143C684.005 760.111 684.005 559.016 559.973 434.984C435.941 310.952 234.846 310.952 110.814 434.984C-13.2179 559.016 -13.2179 760.111 110.814 884.143C234.846 1008.18 435.941 1008.18 559.973 884.143Z" fill="#A2A9A4"/>
<path fill-rule="evenodd" clip-rule="evenodd" d="M225.047 96.9252C207.434 103.97 199.215 124.518 206.26 142.13L225.047 187.335C232.091 204.947 252.639 213.166 270.251 206.121C287.863 199.076 296.082 178.528 289.038 160.916L270.251 115.712C262.619 98.0994 242.659 89.8803 225.047 96.9252Z" fill="#A2A9A4"/>
<path fill-rule="evenodd" clip-rule="evenodd" d="M436.987 43.5013C509.197 73.4421 543.834 156.806 513.893 229.017L436.4 415.706C406.459 487.916 323.095 522.553 250.884 492.612C178.674 462.672 144.037 379.307 173.978 307.097L251.472 120.408C281.412 48.1979 364.777 13.5606 436.987 43.5013Z" fill="#A2A9A4"/>
<path fill-rule="evenodd" clip-rule="evenodd" d="M344.812 112.777C456.356 112.777 547.352 203.774 547.352 315.318V509.052C547.352 620.596 456.356 711.592 344.812 711.592C233.268 711.592 142.271 620.596 142.271 509.052V315.318C142.271 203.774 233.268 112.777 344.812 112.777Z" fill="#849087"/>
<path fill-rule="evenodd" clip-rule="evenodd" d="M185.715 634.684C184.541 632.922 182.78 631.161 181.605 629.4C183.367 631.161 184.541 632.922 185.715 634.684ZM173.386 617.071C153.426 585.37 142.271 548.971 142.271 509.637V422.75C171.625 413.944 193.934 407.486 193.934 407.486L203.327 459.736C203.327 460.323 142.859 558.364 173.386 617.071Z" fill="#A2A9A4"/>
<path fill-rule="evenodd" clip-rule="evenodd" d="M347.746 405.139C384.145 405.139 413.499 435.079 413.499 470.891V643.49C413.499 679.889 383.558 709.243 347.746 709.243C311.348 709.243 281.994 679.302 281.994 643.49V470.891C281.994 435.079 311.935 405.139 347.746 405.139Z" fill="#A2A9A4"/>
<path fill-rule="evenodd" clip-rule="evenodd" d="M343.637 119.822C434.046 119.822 507.431 156.221 507.431 260.133C507.431 364.045 425.24 496.723 343.637 496.723C262.034 496.723 179.844 364.045 179.844 260.133C179.844 156.221 253.228 119.822 343.637 119.822Z" fill="#C5C8C6"/>
<path fill-rule="evenodd" clip-rule="evenodd" d="M378.858 139.783C449.307 159.156 498.621 204.361 488.641 240.759C478.661 277.158 413.496 291.247 343.047 271.874C272.598 252.501 223.284 207.296 233.264 170.897C243.244 134.499 308.409 120.409 378.858 139.783Z" fill="#A2A9A4"/>
<path fill-rule="evenodd" clip-rule="evenodd" d="M340.111 109.84H349.505C399.406 109.84 445.198 128.626 479.835 159.154C452.242 170.308 415.257 176.766 374.162 176.766C313.106 176.766 260.27 161.502 235.025 139.781C266.14 120.994 301.952 109.84 340.111 109.84Z" fill="#A2A9A4"/>
<path fill-rule="evenodd" clip-rule="evenodd" d="M373.576 76.9653L382.969 77.5524C432.87 82.249 476.314 105.145 508.603 138.608C480.423 146.827 442.851 150.349 401.755 146.827C340.7 140.956 289.624 120.996 266.729 96.9258C299.018 81.0748 335.416 73.4429 373.576 76.9653Z" fill="#A2A9A4"/>
<path fill-rule="evenodd" clip-rule="evenodd" d="M142.271 520.205V308.858C142.271 236.648 180.431 172.657 237.964 136.846V348.192C237.964 420.402 199.805 483.806 142.271 520.205Z" fill="#A2A9A4"/>
<path fill-rule="evenodd" clip-rule="evenodd" d="M504.495 634.684C505.669 632.922 507.431 631.161 508.605 629.4C506.844 631.161 505.669 632.922 504.495 634.684ZM516.824 617.071C536.197 585.957 547.939 548.971 547.939 509.637V422.75C518.585 413.944 496.276 407.486 496.276 407.486L486.883 459.736C486.296 460.323 547.352 558.364 516.824 617.071Z" fill="#A2A9A4"/>
<path fill-rule="evenodd" clip-rule="evenodd" d="M547.939 520.205V308.858C547.939 236.648 509.779 172.657 452.246 136.846V348.192C452.246 420.402 490.406 483.806 547.939 520.205Z" fill="#A2A9A4"/>
<path fill-rule="evenodd" clip-rule="evenodd" d="M176.318 148.587C173.383 156.806 178.079 165.612 186.298 168.548L207.433 175.593C215.652 178.528 224.458 173.831 227.393 165.612C230.329 157.393 225.632 148.587 217.413 145.652L196.278 138.607C188.059 135.672 179.253 140.368 176.318 148.587Z" fill="#A2A9A4"/>
<path fill-rule="evenodd" clip-rule="evenodd" d="M324.854 116.885C354.207 124.517 377.69 140.368 377.103 151.522C376.516 162.677 352.446 165.612 323.092 157.98C293.739 150.348 270.256 134.497 270.843 123.343C271.43 111.601 295.5 109.253 324.854 116.885Z" fill="#E3E4E3"/>
<path fill-rule="evenodd" clip-rule="evenodd" d="M226.809 268.937C223.286 315.902 206.261 355.236 188.649 358.172C171.037 360.52 159.882 324.709 163.405 277.743C166.927 230.777 183.952 191.443 201.565 188.508C218.59 186.746 230.331 222.558 226.809 268.937Z" fill="#C5C8C6"/>
<path fill-rule="evenodd" clip-rule="evenodd" d="M530.326 740.357C530.326 782.04 496.276 816.09 454.594 816.09H241.486C199.804 816.09 165.754 782.04 165.754 740.357C165.754 698.675 199.804 664.625 241.486 664.625H454.007C496.276 664.625 530.326 698.675 530.326 740.357Z" fill="#849087"/>
<path fill-rule="evenodd" clip-rule="evenodd" d="M260.857 602.982C290.798 621.181 300.778 661.102 281.992 691.63L84.1484 1015.69C65.9491 1045.64 26.0281 1055.62 -4.49968 1036.83C-34.4404 1018.63 -44.4207 978.709 -25.6343 948.181L172.209 624.117C190.996 594.176 230.917 584.783 260.857 602.982Z" fill="#313A34"/>
<path fill-rule="evenodd" clip-rule="evenodd" d="M436.985 602.982C407.044 621.181 397.064 661.102 415.85 691.63L613.694 1015.69C631.893 1045.64 671.814 1055.62 702.342 1036.83C732.283 1018.63 742.263 978.709 723.476 948.181L525.633 624.117C506.846 594.176 466.925 584.783 436.985 602.982Z" fill="#313A34"/>
<path fill-rule="evenodd" clip-rule="evenodd" d="M350.684 921.762C330.723 944.071 301.957 957.573 270.255 957.573H266.145C216.244 957.573 172.213 922.936 161.059 874.209C154.014 852.487 158.711 830.766 165.169 809.631C181.607 755.033 223.289 650.534 279.648 629.987C306.653 620.593 333.072 626.464 350.684 643.489C368.296 626.464 394.714 620.593 421.72 629.987C478.666 649.947 520.348 755.033 536.199 809.631C542.657 831.353 546.766 852.487 540.308 874.209C529.154 922.936 485.124 957.573 435.222 957.573H431.113C398.824 957.573 370.057 944.071 350.684 921.762Z" fill="#48524B"/>
<path fill-rule="evenodd" clip-rule="evenodd" d="M360.661 708.656C358.899 739.771 356.551 777.931 360.661 810.807C360.073 814.916 359.486 819.026 359.486 823.135C359.486 860.708 390.601 891.823 428.174 891.823H432.283C465.16 891.823 493.339 868.34 499.797 837.225C504.493 824.896 500.971 810.807 496.274 794.369C484.533 755.035 445.786 654.645 405.865 640.555C384.143 632.923 368.293 644.665 364.183 665.8C361.835 679.302 361.835 693.979 360.661 708.656Z" fill="#647067"/>
<path fill-rule="evenodd" clip-rule="evenodd" d="M364.772 118.059C435.221 137.432 484.535 182.637 474.555 219.036C464.575 255.434 399.41 269.524 328.961 250.15C258.512 230.777 209.198 185.572 219.178 149.174C229.158 112.775 294.324 98.6855 364.772 118.059Z" fill="#A2A9A4"/>
<path fill-rule="evenodd" clip-rule="evenodd" d="M341.289 49.9586C389.429 35.2818 434.047 44.0879 441.679 68.745C449.311 93.4021 416.435 125.691 368.295 139.781C320.155 154.458 275.537 145.652 267.905 120.995C260.273 96.3374 293.149 64.6355 341.289 49.9586Z" fill="#C5C8C6"/>
<path fill-rule="evenodd" clip-rule="evenodd" d="M348.329 130.975C390.011 148.588 415.842 180.29 407.036 202.011C397.643 223.733 356.548 226.668 315.453 208.469C273.77 190.857 247.939 159.155 256.745 137.433C265.551 116.299 306.646 112.776 348.329 130.975Z" fill="#C5C8C6"/>
<path fill-rule="evenodd" clip-rule="evenodd" d="M372.986 395.746C376.509 401.029 378.27 406.9 378.27 412.771C378.27 430.383 363.006 443.886 345.394 443.886C327.781 443.886 312.518 430.383 312.518 412.771C312.518 406.313 314.279 400.442 317.801 395.746C319.562 392.81 323.085 391.636 326.02 392.81C328.956 393.397 331.304 396.333 331.304 399.855C331.891 406.9 337.175 414.532 344.807 414.532C352.439 414.532 357.722 406.9 358.309 399.855C358.309 396.333 360.658 393.984 363.593 392.81C367.702 391.636 371.225 392.81 372.986 395.746Z" fill="white"/>
<path fill-rule="evenodd" clip-rule="evenodd" d="M419.958 329.405C419.958 325.883 419.958 322.948 419.37 319.425C416.435 301.813 404.694 281.853 389.43 281.853C374.166 281.853 368.882 301.813 371.818 319.425C372.405 322.948 372.992 326.47 374.166 329.405C375.34 331.754 377.101 334.102 379.449 334.102C381.798 334.102 382.972 332.341 382.972 329.405C382.972 320.599 386.494 311.206 394.126 311.206C401.758 311.206 408.216 321.186 411.739 329.405C412.913 331.754 414.674 334.102 417.022 334.102C418.783 334.102 419.958 332.341 419.958 329.405Z" fill="#849087"/>
<path fill-rule="evenodd" clip-rule="evenodd" d="M267.316 329.405C267.316 325.883 267.316 322.948 267.903 319.425C270.839 301.813 282.58 281.853 297.844 281.853C313.108 281.853 318.392 301.813 315.456 319.425C314.869 322.948 314.282 326.47 313.108 329.405C311.934 331.754 310.173 334.102 307.824 334.102C305.476 334.102 304.302 332.341 304.302 329.405C304.302 320.599 300.78 311.206 293.148 311.206C285.516 311.206 279.058 321.186 275.535 329.405C274.361 331.754 272.6 334.102 270.252 334.102C268.491 334.102 267.316 332.341 267.316 329.405Z" fill="#849087"/>
</g>
</g>
<defs>
<clipPath id="clip0_85_11473">
<rect width="696.187" height="740.814" rx="142.808" fill="white"/>
</clipPath>
<clipPath id="clip1_85_11473">
<path d="M0 228.492C0 148.512 0 108.522 15.5651 77.9743C29.2565 51.1033 51.1033 29.2565 77.9743 15.5651C108.522 0 148.512 0 228.492 0H467.695C547.674 0 587.664 0 618.212 15.5651C645.083 29.2565 666.93 51.1033 680.622 77.9743C696.187 108.522 696.187 148.512 696.187 228.492V740.814H0V228.492Z" fill="white"/>
</clipPath>
</defs>
</svg>
