<svg width="135" height="358" viewBox="0 0 135 358" fill="none" xmlns="http://www.w3.org/2000/svg">
<path d="M77.1681 284.04L77.4693 344.29C77.4914 348.708 81.091 352.272 85.5092 352.25C89.9274 352.228 93.4912 348.628 93.4691 344.21L93.1679 283.96C93.1458 279.542 89.5462 275.978 85.128 276C80.7097 276.022 77.146 279.622 77.1681 284.04Z" fill="#EBBAAA"/>
<path d="M40.668 284V347.5C40.668 351.918 44.2497 355.5 48.668 355.5C53.0862 355.5 56.668 351.918 56.668 347.5V284C56.668 279.582 53.0862 276 48.668 276C44.2497 276 40.668 279.582 40.668 284Z" fill="#EBBAAA"/>
<path d="M67.168 249.25C83.046 249.25 95.9177 243.374 95.9177 236.125C95.9177 228.876 83.046 223 67.168 223C51.2897 223 38.418 228.876 38.418 236.125C38.418 243.374 51.2897 249.25 67.168 249.25Z" fill="#E2D3BD"/>
<path d="M66.918 218.5H106.918L99.418 332.5L75.875 335L68.8965 273L66.918 218.5Z" fill="#E2D3BD"/>
<path d="M67.418 218.5H27.418L34.918 332.5L58.4607 335L65.4395 273L67.418 218.5Z" fill="#E2D3BD"/>
<path d="M123.636 355.51C123.68 350.465 122.893 350.088 117.903 348.02C112.914 345.953 101.166 342.6 97.0797 336.963C97.0797 336.963 95.9437 336.775 94.0962 337.653C92.5195 338.4 90.4952 340.238 87.4417 340.213C84.126 340.183 81.1707 339.563 79.334 338.713C78.5387 336.803 76.7792 336.785 76.7792 336.785C76.7792 336.785 74.3067 340.93 74.2705 345.095C74.2342 349.26 74.2467 356.18 74.2467 356.18L123.636 355.51Z" fill="#8D5D42"/>
<path d="M83.4439 346.08C82.5689 345.568 77.5584 343.665 75.3197 342.365C74.2127 343.175 74.3507 348.068 74.3262 350.888L85.3212 351.495C84.7149 349.355 83.7354 346.38 83.4439 346.08Z" fill="#A87C63"/>
<path d="M112.048 349.105C115.169 349.515 119.168 349.68 119.927 348.66L114.815 347.078L108.089 344.328L106.331 345.208L106.575 345.98L102.804 348.383L104.408 350.705L104.433 350.693C105.665 350.14 108.895 348.688 112.048 349.105Z" fill="#A87C63"/>
<path d="M100.204 343.316C100.064 343.837 100.559 344.304 101.071 344.135L104.377 343.039L104.376 346.127C104.376 346.643 104.93 346.97 105.381 346.719L107.625 345.473L107.624 347.792C107.624 348.166 107.927 348.469 108.301 348.469C108.674 348.469 108.977 348.166 108.978 347.793L108.978 344.323C108.978 343.806 108.424 343.48 107.973 343.731L105.73 344.977L105.731 342.103C105.731 341.641 105.279 341.315 104.841 341.46L101.838 342.455L102.595 339.643C102.744 339.091 102.183 338.615 101.663 338.851L98.0351 340.492C98.0786 339.466 98.2052 338.758 98.5025 338.071C98.6511 337.728 98.4935 337.33 98.1506 337.181C97.8076 337.033 97.4092 337.19 97.2606 337.533C96.7725 338.66 96.6631 339.723 96.6626 341.55C96.6625 342.041 97.1703 342.369 97.6183 342.166L100.916 340.674L100.204 343.316Z" fill="#67432F"/>
<path d="M74.3555 355.387L74.3565 350.75L113.958 353.507L123.908 352.48L124.115 354.205C124.262 355.432 123.352 356.532 122.118 356.622L113.957 357.202L93.9077 356.468L75.4385 356.47C74.8402 356.47 74.3555 355.987 74.3555 355.387Z" fill="#67432F"/>
<path d="M10.5842 355.323C10.5402 350.278 11.3271 349.898 16.3169 347.83C21.3067 345.765 33.0545 342.413 37.1407 336.775C37.1407 336.775 38.2767 336.585 40.1245 337.463C41.701 338.213 43.7252 340.05 46.7787 340.023C50.0945 339.995 53.0497 339.373 54.8865 338.525C55.6817 336.613 57.4412 336.598 57.4412 336.598C57.4412 336.598 59.9137 340.743 59.95 344.908C59.9862 349.073 59.9737 355.99 59.9737 355.99L10.5842 355.323Z" fill="#8D5D42"/>
<path d="M50.7767 345.892C51.6517 345.38 56.6622 343.477 58.9009 342.175C60.0079 342.987 59.8699 347.877 59.8944 350.697L48.8994 351.307C49.5057 349.165 50.4852 346.19 50.7767 345.892Z" fill="#A87C63"/>
<path d="M22.1727 348.915C19.0511 349.328 15.0524 349.49 14.2935 348.473L19.4048 346.89L26.1311 344.138L27.8889 345.02L27.6456 345.793L31.4166 348.195L29.8119 350.515L29.7871 350.505C28.5549 349.95 25.3249 348.5 22.1727 348.915Z" fill="#A87C63"/>
<path d="M32.5582 338.661C32.0374 338.425 31.4768 338.901 31.6255 339.453L32.3827 342.266L29.3791 341.272C28.9411 341.128 28.4898 341.454 28.4899 341.915L28.4907 344.79L26.2476 343.543C25.7965 343.293 25.2421 343.619 25.2422 344.135L25.2429 347.605C25.243 347.979 25.5461 348.282 25.9198 348.282C26.2935 348.282 26.5964 347.979 26.5964 347.605L26.5959 345.285L28.839 346.531C29.2901 346.782 29.8445 346.456 29.8444 345.94L29.8436 342.852L33.1502 343.945C33.6617 344.114 34.1562 343.647 34.0161 343.126L33.3049 340.485L36.6019 341.979C37.0499 342.182 37.558 341.854 37.5579 341.362L37.5568 341.072L37.5533 340.779C37.5283 339.297 37.3935 338.345 36.9598 337.343C36.8113 337 36.4128 336.843 36.0699 336.991C35.727 337.14 35.5694 337.538 35.7179 337.881C36.0023 338.538 36.1305 339.215 36.1792 340.172L36.1853 340.304L32.5582 338.661Z" fill="#67432F"/>
<path d="M59.8654 355.2L59.8644 350.56L20.2632 353.32L10.3123 352.293L10.1059 354.015C9.95888 355.243 10.8686 356.345 12.1024 356.433L20.264 357.013L40.3131 356.278L58.7824 356.283C59.3806 356.283 59.8656 355.798 59.8654 355.2Z" fill="#67432F"/>
<path d="M95.2917 161.092C99.9393 169.331 103.697 182.08 105.652 195.516C107.376 207.359 107.358 218.069 106.016 221.973L105.974 222.089C104.229 226.89 106.705 232.197 111.506 233.943C116.307 235.689 121.615 233.212 123.361 228.411C126.065 220.975 126.109 207.62 123.959 192.852C121.702 177.343 117.329 162.505 111.405 152.002C108.895 147.553 103.253 145.981 98.8036 148.49C94.3541 151 92.7818 156.642 95.2917 161.092Z" fill="#EBBAAA"/>
<path d="M22.9266 152.003C17.0023 162.505 12.6293 177.344 10.372 192.852C8.22252 207.62 8.26663 220.976 10.9706 228.412C12.7164 233.213 18.0237 235.69 22.8248 233.944C27.5778 232.216 30.0528 226.997 28.4079 222.234L28.3568 222.09C26.9737 218.286 26.938 207.48 28.6791 195.517C30.6348 182.081 34.392 169.331 39.0397 161.092C41.5497 156.643 39.9774 151.001 35.5279 148.491C31.0784 145.981 25.4366 147.553 22.9266 152.003Z" fill="#EBBAAA"/>
<rect x="25.4175" y="118.5" width="42.5" height="98.2055" rx="21.25" transform="rotate(15 25.4175 118.5)" fill="#2D3870"/>
<rect width="42.5" height="98.2055" rx="21.25" transform="matrix(-0.965926 0.258819 0.258819 0.965926 108.969 118.5)" fill="#2D3870"/>
<path d="M118.167 155.21C115.917 154.125 107.667 156.5 103.167 159.25V167.21C103.167 165.61 114.667 162.377 120.417 160.96C120.167 159.877 119.367 157.21 118.167 155.21Z" fill="#E8ECF3"/>
<path d="M120.417 161.115C115.042 160.375 108.292 163.5 103.792 166.25C103.792 169 105.417 175.215 105.417 173.615C105.417 172.015 116.667 169.031 122.417 167.615C122.167 166.531 121.617 163.115 120.417 161.115Z" fill="#3D507B"/>
<path d="M16.1675 155.21C18.4175 154.125 26.6675 156.5 31.1675 159.25V167.21C31.1675 165.61 19.6675 162.377 13.9175 160.96C14.1675 159.877 14.9675 157.21 16.1675 155.21Z" fill="#E8ECF3"/>
<path d="M13.9175 161.115C19.2925 160.375 26.0425 163.5 30.5425 166.25C30.5425 169 28.9175 175.215 28.9175 173.615C28.9175 172.015 17.6675 169.031 11.9175 167.615C12.1675 166.531 12.7175 163.115 13.9175 161.115Z" fill="#3D507B"/>
<path d="M129.167 222C130.767 217.4 131.167 201.25 129.167 193.75L100.667 192.5C103.718 202 104.218 214.5 106.468 226.75L106.506 226.752C111.792 227.004 127.172 227.736 129.167 222Z" fill="#2D3870"/>
<path d="M5.27209 222C3.67209 217.4 3.27214 201.25 5.27211 193.75L33.772 192.5C30.7217 202 30.2217 214.5 27.9717 226.75L27.9335 226.752C22.647 227.004 7.26724 227.736 5.27209 222Z" fill="#2D3870"/>
<path d="M25.2217 135.633C24.906 129.284 29.4054 123.709 35.6782 122.678L67.1674 117.5L98.6567 122.678C104.929 123.709 109.429 129.284 109.113 135.633L107.167 174.75C107.167 174.75 107.948 191.865 108.417 203.25C108.807 212.702 107.652 226.463 107.279 230.558C107.211 231.312 106.804 231.983 106.131 232.333C102.738 234.095 90.7947 239.25 67.1674 239.25C43.5402 239.25 31.5967 234.095 28.2034 232.333C27.5309 231.983 27.1242 231.312 27.0554 230.558C26.6824 226.463 25.5277 212.702 25.9174 203.25C26.3869 191.865 27.1674 174.75 27.1674 174.75L25.2217 135.633Z" fill="#455191"/>
<path d="M67.1675 144.5C76.8322 144.5 84.6675 136.665 84.6675 127C84.6675 117.335 76.8322 109.5 67.1675 109.5C57.5025 109.5 49.6675 117.335 49.6675 127C49.6675 136.665 57.5025 144.5 67.1675 144.5Z" fill="#5D6AAF"/>
<path fill-rule="evenodd" clip-rule="evenodd" d="M89.5675 173.95V192.45C89.5675 206.05 79.4675 213.65 67.8675 213.65C56.2675 213.65 46.1675 206.05 46.1675 192.45V173.95C46.1675 160.35 56.2675 152.75 67.8675 152.75C79.4675 152.75 89.5675 160.35 89.5675 173.95ZM67.8675 201.95C72.9675 201.95 76.5675 198.35 76.5675 192.35V174.15C76.5675 168.15 72.9675 164.45 67.8675 164.45C62.7675 164.45 59.1675 168.15 59.1675 174.15V192.35C59.1675 198.35 62.7675 201.95 67.8675 201.95Z" fill="white"/>
<rect x="55.167" y="86" width="24" height="48.5" rx="12" fill="#EBBAAA"/>
<path opacity="0.5" d="M104.667 82.5C110.19 82.5 114.667 78.0227 114.667 72.5C114.667 66.9773 110.19 62.5 104.667 62.5C99.1442 62.5 94.667 66.9773 94.667 72.5C94.667 78.0227 99.1442 82.5 104.667 82.5Z" fill="#C99584"/>
<path opacity="0.5" d="M29.6671 82.5C24.1441 82.5 19.667 78.0227 19.667 72.5C19.667 66.9773 24.1441 62.5 29.6671 62.5C35.1899 62.5 39.6671 66.9773 39.6671 72.5C39.6671 78.0227 35.1899 82.5 29.6671 82.5Z" fill="#C99584"/>
<rect x="29.667" y="10.5" width="75" height="107.5" rx="37.5" fill="#F4D5CC"/>
<path d="M56.2022 92.1654L56.2895 92.2143L56.4083 92.2778L56.4548 92.3019C56.6258 92.3901 56.8241 92.486 57.0494 92.5873C57.6724 92.8677 58.3975 93.1445 59.2209 93.4005C61.536 94.1205 64.1964 94.5499 67.1674 94.5499C70.1384 94.5499 72.7988 94.1205 75.114 93.4005C75.9373 93.1445 76.6624 92.8677 77.2854 92.5873C77.4732 92.5029 77.6422 92.4222 77.7923 92.3467L77.88 92.3019C77.9927 92.2438 78.0771 92.1976 78.1326 92.1654C79.0524 91.6323 79.3659 90.4546 78.8329 89.5348C78.3107 88.6337 77.1698 88.3145 76.2589 88.8029L76.1495 88.8634L76.0563 88.9112C75.9822 88.9483 75.8839 88.9955 75.7621 89.051L75.7056 89.0766C75.2219 89.2943 74.6422 89.5156 73.9708 89.7244C72.0151 90.3325 69.738 90.7 67.1674 90.7C64.5968 90.7 62.3198 90.3325 60.364 89.7244C59.7443 89.5316 59.2027 89.3283 58.7425 89.1269L58.6292 89.0766C58.3971 88.9722 58.2413 88.894 58.1645 88.8523L58.1326 88.8345C57.2128 88.3014 56.035 88.615 55.502 89.5348C54.9689 90.4546 55.2824 91.6323 56.2022 92.1654Z" fill="#C99584"/>
<path d="M105.915 39.1215C105.973 37.5538 104.838 36.25 103.417 36.25C101.943 36.25 100.789 37.6485 100.928 39.2675L103.282 66.6933C103.322 67.1518 103.67 67.5 104.085 67.5C104.52 67.5 104.875 67.1235 104.893 66.647L105.915 39.1215Z" fill="#393939"/>
<path d="M28.4191 39.1215C28.3609 37.5538 29.4961 36.25 30.9169 36.25C32.3909 36.25 33.5449 37.6485 33.4054 39.2675L31.0516 66.6933C31.0121 67.1518 30.6639 67.5 30.2484 67.5C29.8141 67.5 29.4591 67.1235 29.4404 66.647L28.4191 39.1215Z" fill="#393939"/>
<path d="M65.9981 27.0448C85.0352 27.0448 100.257 26.9928 101.042 40.9063C104.253 45.431 106.264 44.9275 107.014 36.693C109.416 10.3212 82.9562 -4.62057 64.6322 1.28149C64.6322 1.28149 46.9589 27.0448 65.9981 27.0448Z" fill="#393939"/>
<path d="M68.3359 27.0448C49.2989 27.0448 34.0771 26.9928 33.2921 40.9063C30.0809 45.431 28.0696 44.9275 27.3196 36.693C24.9184 10.3212 51.3779 -4.62057 69.7019 1.28149C69.7019 1.28149 87.3751 27.0448 68.3359 27.0448Z" fill="#393939"/>
<path d="M52.8025 31.8633L49.4547 23.3158L48.167 5H90.917L79.0705 34L76.4952 29.1157L73.6625 31.8633L70.057 26.6737L67.7392 31.8633L63.8762 29.1157L58.9832 31.8633L57.438 29.1157L52.8025 31.8633Z" fill="#393939"/>
<path d="M83.167 60.25H78.167C76.9244 60.25 75.917 61.2574 75.917 62.5C75.917 63.7426 76.9244 64.75 78.167 64.75H83.167C84.4096 64.75 85.417 63.7426 85.417 62.5C85.417 61.2574 84.4096 60.25 83.167 60.25Z" fill="black"/>
<path d="M55.667 60.25H50.667C49.4244 60.25 48.417 61.2574 48.417 62.5C48.417 63.7426 49.4244 64.75 50.667 64.75H55.667C56.9096 64.75 57.917 63.7426 57.917 62.5C57.917 61.2574 56.9096 60.25 55.667 60.25Z" fill="black"/>
<path d="M77.971 49.7416L87.971 50.6166C89.2089 50.7249 90.3002 49.8092 90.4086 48.5713C90.5169 47.3334 89.6012 46.242 88.3633 46.1337L78.3633 45.2587C77.1253 45.1504 76.034 46.0661 75.9257 47.304C75.8174 48.5419 76.7331 49.6333 77.971 49.7416Z" fill="#393939"/>
<path d="M55.471 45.2587L45.471 46.1337C44.2331 46.242 43.3174 47.3334 43.4257 48.5713C43.534 49.8092 44.6253 50.7249 45.8633 50.6166L55.8633 49.7416C57.1012 49.6333 58.0169 48.5419 57.9086 47.304C57.8002 46.0661 56.7089 45.1504 55.471 45.2587Z" fill="#393939"/>
<path d="M65.3989 68.8213C63.7598 71.2799 62.542 74.7812 62.542 77.6563C62.542 81.8247 65.0312 84.625 69.667 84.625V80.375C67.4972 80.375 66.792 79.5816 66.792 77.6563C66.792 75.6876 67.7332 72.9815 68.9351 71.1788L65.3989 68.8213Z" fill="#EBBAAA"/>
</svg>
